<svg width="191" height="378" viewBox="0 0 191 378" fill="none" xmlns="http://www.w3.org/2000/svg">
<path d="M190.621 134.389C190.621 134.389 189.573 124.594 183.515 123.681C180.353 123.206 175.482 122.47 171.544 121.877C171.544 112.069 171.544 102.396 171.544 93.1402C173.39 91.8568 174.607 89.724 174.607 87.3196V47.4803C174.607 45.0759 173.39 42.9411 171.544 41.6597C171.544 29.4452 171.544 21.4363 171.544 19.971C171.544 17.8126 168.271 15.4446 162.962 13.1172C162.029 10.8519 159.954 9.11701 157.364 8.76619L143.851 6.93295C128.066 2.94132 108.807 0 95.3115 0C81.8156 0 62.557 2.94132 46.7723 6.93295L33.2593 8.76619C30.6688 9.11701 28.5917 10.8497 27.6612 13.1172C22.3519 15.4446 19.0768 17.8126 19.0768 19.9689C19.0768 21.4342 19.0768 29.4452 19.0768 41.6576C17.2308 42.9411 16.0136 45.0738 16.0136 47.4803V87.3175C16.0136 89.724 17.2308 91.8568 19.0768 93.1381C19.0768 102.394 19.0768 112.069 19.0768 121.877C15.1408 122.47 10.2679 123.204 7.10622 123.681C1.04818 124.594 0 134.389 0 134.389L19.0768 131.516C19.0768 190.676 19.0768 251.214 19.0768 251.214L12.9503 289.338C12.9503 289.338 16.3537 350.611 25.2033 362.864C34.0508 375.117 80.3354 377.16 95.3093 377.16C110.283 377.16 156.57 375.119 165.417 362.864C174.267 350.611 177.668 289.338 177.668 289.338L171.544 251.214C171.544 251.214 171.544 190.676 171.544 131.516L190.621 134.389ZM162.895 134.798C162.895 134.798 162.536 172.124 162.271 203.785H145.677C146.495 183.17 162.895 134.798 162.895 134.798ZM153.635 111.197C160.442 120.273 143.652 168.838 143.652 168.838C143.652 168.838 118.694 162.485 95.0997 162.485C71.5029 162.485 46.5434 168.838 46.5434 168.838C46.5434 168.838 29.7554 120.273 36.5622 111.197C43.3689 102.12 59.2499 99.8507 95.0997 99.8507C130.945 99.8507 146.828 102.12 153.635 111.197ZM27.3018 134.798C27.3018 134.798 43.7026 183.17 44.5198 203.785H27.9286C27.6612 172.124 27.3018 134.798 27.3018 134.798ZM28.2088 245.088C28.2088 239.77 28.1083 225.656 27.9735 209.233H44.447C43.6448 231.59 39.4414 292.196 37.2831 299.099C35.0177 306.359 28.2088 260.973 28.2088 245.088ZM142.858 333.93C136.734 340.059 115.518 345.165 95.0997 345.165C74.6795 345.165 53.4656 340.059 47.3391 333.93C41.2126 327.804 46.999 287.977 46.999 287.977C46.999 287.977 78.423 294.446 95.0997 294.446C111.774 294.446 143.198 287.977 143.198 287.977C143.198 287.977 148.985 327.804 142.858 333.93ZM152.912 299.097C150.756 292.196 146.55 231.59 145.748 209.231H162.224C162.089 225.656 161.986 239.77 161.986 245.085C161.988 260.973 155.182 306.359 152.912 299.097Z" fill="#FF3B30"/>
<path d="M84.4062 125.44L85.5806 124.264L104.345 143.03L103.171 144.205L84.4062 125.44Z" fill="#FF3B30"/>
<path d="M89.6328 120.211L90.8072 119.037L109.57 137.804L108.395 138.978L89.6328 120.211Z" fill="#FF3B30"/>
<path d="M76.9375 112.743L78.1119 111.568L117.036 150.499L115.861 151.673L76.9375 112.743Z" fill="#FF3B30"/>
<path d="M84.4062 312.43L85.5806 311.256L104.343 330.023L103.169 331.197L84.4062 312.43Z" fill="#FF3B30"/>
<path d="M89.6328 307.202L90.8093 306.027L109.572 324.794L108.397 325.968L89.6328 307.202Z" fill="#FF3B30"/>
<path d="M76.9375 299.733L78.1119 298.557L117.036 337.489L115.861 338.663L76.9375 299.733Z" fill="#FF3B30"/>
</svg>
